<svg xmlns="http://www.w3.org/2000/svg" xmlns:xlink="http://www.w3.org/1999/xlink" viewBox="0,0,256,256" width="64px" height="64px" fill-rule="nonzero"><defs><linearGradient x1="36" y1="39.833" x2="36" y2="44.179" gradientUnits="userSpaceOnUse" id="color-1"><stop offset="0" stop-color="#ca4cff"></stop><stop offset="1" stop-color="#ca4cff"></stop></linearGradient><linearGradient x1="42" y1="39.833" x2="42" y2="44.179" gradientUnits="userSpaceOnUse" id="color-2"><stop offset="0" stop-color="#ca4cff"></stop><stop offset="1" stop-color="#ca4cff"></stop></linearGradient><linearGradient x1="48" y1="39.833" x2="48" y2="44.179" gradientUnits="userSpaceOnUse" id="color-3"><stop offset="0" stop-color="#ca4cff"></stop><stop offset="1" stop-color="#ca4cff"></stop></linearGradient><linearGradient x1="30" y1="39.833" x2="30" y2="44.179" gradientUnits="userSpaceOnUse" id="color-4"><stop offset="0" stop-color="#ca4cff"></stop><stop offset="1" stop-color="#ca4cff"></stop></linearGradient><linearGradient x1="32" y1="5.333" x2="32" y2="58.804" gradientUnits="userSpaceOnUse" id="color-5"><stop offset="0" stop-color="#ca4cff"></stop><stop offset="1" stop-color="#ca4cff"></stop></linearGradient></defs><g fill="none" fill-rule="nonzero" stroke="none" stroke-width="1" stroke-linecap="butt" stroke-linejoin="miter" stroke-miterlimit="10" stroke-dasharray="" stroke-dashoffset="0" font-family="none" font-weight="none" font-size="none" text-anchor="none" style="mix-blend-mode: normal"><g transform="scale(4,4)"><path d="M36,40c-1.10457,0 -2,0.89543 -2,2c0,1.10457 0.89543,2 2,2c1.10457,0 2,-0.89543 2,-2c0,-1.10457 -0.89543,-2 -2,-2z" fill="url(#color-1)"></path><path d="M42,40c-1.10457,0 -2,0.89543 -2,2c0,1.10457 0.89543,2 2,2c1.10457,0 2,-0.89543 2,-2c0,-1.10457 -0.89543,-2 -2,-2z" fill="url(#color-2)"></path><path d="M48,40c-1.10457,0 -2,0.89543 -2,2c0,1.10457 0.89543,2 2,2c1.10457,0 2,-0.89543 2,-2c0,-1.10457 -0.89543,-2 -2,-2z" fill="url(#color-3)"></path><path d="M30,40c-1.10457,0 -2,0.89543 -2,2c0,1.10457 0.89543,2 2,2c1.10457,0 2,-0.89543 2,-2c0,-1.10457 -0.89543,-2 -2,-2z" fill="url(#color-4)"></path><path d="M52.021,34h-5.021v-3c0,-2.757 -2.243,-5 -5,-5h-1v-2c0,-1.103 -0.897,-2 -2,-2h-2v-7c0,-4.963 -4.037,-9 -9,-9c-4.963,0 -9,4.037 -9,9v7h-2c-1.103,0 -2,0.897 -2,2v2h-1c-2.757,0 -5,2.243 -5,5v22c0,2.757 2.243,5 5,5h28c2.757,0 5,-2.243 5,-5v-3h5.021c1.642,0 2.979,-1.337 2.979,-2.979v-10.042c0,-1.642 -1.337,-2.979 -2.979,-2.979zM39,26h-6v-2h6zM21,15c0,-3.859 3.141,-7 7,-7c3.859,0 7,3.141 7,7v7h-2c-1.103,0 -2,0.897 -2,2v2h-6v-2c0,-1.103 -0.897,-2 -2,-2h-2zM17,24h6v2h-6zM45,53c0,1.654 -1.346,3 -3,3h-7c0,-1.103 -0.897,-2 -2,-2h-10c-1.103,0 -2,0.897 -2,2h-7c-1.654,0 -3,-1.346 -3,-3v-4h4v-2h-4v-2h4v-2h-4v-2h4v-2h-4v-2h4v-2h-4v-4c0,-1.654 1.346,-3 3,-3h28c1.654,0 3,1.346 3,3v3h-19.021c-1.642,0 -2.979,1.337 -2.979,2.979v10.041c0,1.643 1.337,2.98 2.979,2.98h19.021zM53,47.021c0,0.54 -0.439,0.979 -0.979,0.979h-26.042c-0.54,0 -0.979,-0.439 -0.979,-0.979v-10.042c0,-0.54 0.439,-0.979 0.979,-0.979h26.041c0.541,0 0.98,0.439 0.98,0.979z" fill="url(#color-5)"></path></g></g></svg>